<svg width="326" height="326" viewBox="0 0 326 326" fill="none" xmlns="http://www.w3.org/2000/svg">
<path d="M163.308 54C102.949 54 54 102.92 54 163.308C54 223.668 102.92 272.617 163.308 272.617C223.697 272.617 272.617 223.668 272.617 163.308C272.617 102.949 223.668 54 163.308 54ZM230.026 185.577C230.026 186.738 229.097 187.667 227.936 187.667H188.857C187.696 187.667 186.767 188.596 186.767 189.757V228.807C186.767 229.968 185.838 230.897 184.677 230.897H141.795C140.634 230.897 139.705 229.968 139.705 228.807V189.757C139.705 188.596 138.776 187.667 137.614 187.667H98.5653C97.404 187.667 96.475 186.738 96.475 185.577V142.695C96.475 141.534 97.404 140.605 98.5653 140.605H137.614C138.776 140.605 139.705 139.676 139.705 138.514V99.4363C139.705 98.275 140.634 97.346 141.795 97.346H184.677C185.838 97.346 186.767 98.275 186.767 99.4363V138.514C186.767 139.676 187.696 140.605 188.857 140.605H227.936C229.097 140.605 230.026 141.534 230.026 142.695V185.577Z" fill="#1D7DAB"/>
</svg>
