<svg width="326" height="326" viewBox="0 0 326 326" fill="none" xmlns="http://www.w3.org/2000/svg">
<path d="M100.45 118.511H212.43V106.897H100.45" fill="#1D7DAB"/>
<path d="M162.842 133.957H214.927V128.15H162.842" fill="#1D7DAB"/>
<path d="M162.842 144.321H214.927V138.515H162.842" fill="#1D7DAB"/>
<path d="M162.842 154.657H214.927V148.851H162.842" fill="#1D7DAB"/>
<path d="M162.842 164.993H214.927V159.187H162.842" fill="#1D7DAB"/>
<path d="M162.842 175.357H214.927V169.551H162.842" fill="#1D7DAB"/>
<path d="M162.842 185.693H214.927V179.887H162.842" fill="#1D7DAB"/>
<path d="M162.842 196.029H214.927V190.223H162.842" fill="#1D7DAB"/>
<path d="M100.45 208.164H214.927V202.357H100.45" fill="#1D7DAB"/>
<path d="M100.45 218.907H214.927V213.101H100.45" fill="#1D7DAB"/>
<path d="M163.308 54C102.949 54 54 102.92 54 163.308C54 223.668 102.92 272.617 163.308 272.617C223.697 272.617 272.617 223.668 272.617 163.308C272.617 102.949 223.668 54 163.308 54ZM223.523 227.558H221.577H92.5846V96.6492H223.493V205.087L231.623 111.427H249.536L223.523 227.558Z" fill="#1D7DAB"/>
<path d="M125.188 180.117C124.723 180.117 124.723 180.117 124.723 180.117C124.52 181.046 124.171 182.73 123.997 183.862L122.749 191.063C122.546 192.195 123.33 193.124 124.491 193.124H125.942C127.104 193.124 127.888 192.195 127.684 191.063L126.436 183.862C126.233 182.73 125.913 181.046 125.681 180.117C125.681 180.117 125.681 180.117 125.188 180.117Z" fill="#1D7DAB"/>
<path d="M149.95 133.144C149.95 131.983 149.021 131.054 147.86 131.054H102.569C101.408 131.054 100.479 131.983 100.479 133.144V191.035C100.479 192.197 101.408 193.126 102.569 193.126H114.617C115.779 193.126 116.795 192.197 116.911 191.035L118.479 175.096C118.595 173.964 118.74 172.077 118.798 170.916L118.595 162.38C118.653 161.219 118.421 161.19 118.101 162.293C118.101 162.293 114.763 173.848 113.805 178.551C113.572 179.626 110.988 179.045 111.134 177.971C113.834 156.399 114.995 155.18 115.024 155.122C115.837 152.422 121.266 151.261 121.266 151.261C122.398 151.028 122.718 150.099 121.992 149.228C121.992 149.228 120.976 148.009 120.976 145.773C120.976 142.638 122.863 140.083 125.214 140.083C127.566 140.083 129.453 142.638 129.453 145.773C129.453 148.009 128.437 149.228 128.437 149.228C127.711 150.128 128.031 151.028 129.163 151.261C129.163 151.261 134.621 152.422 135.405 155.122C135.434 155.18 136.595 156.399 139.295 177.971C139.441 179.045 136.857 179.626 136.624 178.551C135.666 173.848 132.328 162.293 132.328 162.293C132.008 161.19 131.718 161.219 131.66 162.38C131.66 162.38 131.573 164.18 131.689 166.387C131.805 168.651 131.776 170.916 131.776 170.916C131.776 172.077 131.863 173.935 131.95 175.096L133.518 191.035C133.634 192.168 134.65 193.126 135.811 193.126H147.86C149.021 193.126 149.95 192.197 149.95 191.035V133.144Z" fill="#1D7DAB"/>
</svg>
