<svg width="250" height="250" viewBox="0 0 250 250" fill="none" xmlns="http://www.w3.org/2000/svg">
<path d="M125 0C55.9761 0 0 55.9429 0 125C0 194.024 55.9429 250 125 250C194.057 250 250 194.024 250 125C250 55.9761 194.024 0 125 0ZM212.882 126.76C210.624 115.604 202.025 85.7238 202.025 85.7238C201.66 84.4622 201.394 84.4954 201.461 85.8234L201.262 111.155C201.328 112.483 201.494 114.608 201.627 115.936L209.827 199.17C209.96 200.465 208.997 201.56 207.669 201.56H201.892C200.564 201.56 199.336 200.498 199.104 199.203L188.347 136.786C188.114 135.491 187.716 133.367 187.417 132.105C187.417 132.105 187.019 130.412 185.89 130.412C184.761 130.412 184.363 132.105 184.363 132.105C184.064 133.4 183.665 135.491 183.433 136.786L172.676 199.203C172.444 200.498 171.182 201.56 169.887 201.56H164.11C162.782 201.56 161.819 200.498 161.952 199.17L170.153 115.936C170.286 114.641 170.452 112.483 170.518 111.155L170.319 85.8234C170.385 84.4954 170.12 84.4622 169.754 85.7238C169.754 85.7238 161.122 115.604 158.865 126.76C158.599 128.054 157.669 128.021 157.669 128.021C156.341 127.988 154.216 127.988 152.888 128.021C152.888 128.021 151.959 128.054 151.693 126.76C149.436 115.604 140.837 85.7238 140.837 85.7238C140.471 84.4622 140.206 84.4954 140.272 85.8234L140.073 111.155C140.139 112.483 140.305 114.608 140.438 115.936L148.639 199.17C148.772 200.465 147.809 201.56 146.481 201.56H140.704C139.376 201.56 138.114 200.498 137.915 199.203L127.158 136.786C126.926 135.491 126.527 133.367 126.228 132.105C126.228 132.105 125.83 130.412 124.701 130.412C123.572 130.412 123.174 132.105 123.174 132.105C122.875 133.4 122.477 135.491 122.244 136.786L111.487 199.203C111.255 200.498 109.993 201.56 108.699 201.56H102.922C101.594 201.56 100.631 200.498 100.764 199.17L108.964 115.936C109.097 114.641 109.263 112.483 109.329 111.155L109.13 85.8234C109.197 84.4954 108.931 84.4622 108.566 85.7238L98.838 122.145C98.4728 123.406 98.2404 124.701 98.2736 125.033C98.2736 125.033 98.2736 125.033 98.3068 125.332C98.3732 125.93 98.3732 125.93 98.3732 125.93C97.9416 126.461 97.2775 127.158 96.8459 127.523C96.4475 127.855 94.2895 127.988 93.5923 127.922C92.9283 127.888 91.6999 126.461 91.2682 125.93C91.2682 125.93 91.2683 125.93 91.3347 125.332C91.3679 125.033 91.3679 125.033 91.3679 125.033C91.4011 124.701 91.1687 123.406 90.8034 122.145L81.0757 85.7238C80.7105 84.4622 80.4449 84.4954 80.5113 85.8234L80.3121 111.155C80.3785 112.483 80.5445 114.608 80.6773 115.936L88.8778 199.17C89.0106 200.465 88.0478 201.56 86.7198 201.56H80.9429C79.6149 201.56 78.3533 200.498 78.1541 199.203L67.3971 136.786C67.1647 135.491 66.7663 133.367 66.4675 132.105C66.4675 132.105 66.0691 130.412 64.9734 130.412C63.8446 130.412 63.4462 132.105 63.4462 132.105C63.1474 133.4 62.749 135.491 62.5166 136.786L51.7596 199.203C51.5272 200.498 50.2656 201.56 48.9708 201.56H43.1939C41.8659 201.56 40.9031 200.498 41.0359 199.17L49.2364 115.936C49.3692 114.641 49.5352 112.483 49.6016 111.155L49.4024 85.8234C49.4688 84.4954 49.2032 84.4622 48.838 85.7238C48.838 85.7238 40.2058 115.604 37.9814 126.76C37.4834 129.283 31.3413 127.922 31.6401 125.365C38.081 74.2032 40.8366 71.3479 40.8698 71.2151C42.7955 64.8074 58.2005 61.5206 58.2005 61.5206C59.4953 61.255 59.8606 60.1926 59.0305 59.1633C59.0305 59.1633 54.9801 54.2497 54.9801 48.9708C54.9801 41.5007 59.4621 35.4582 65.0066 35.4582C70.5511 35.4582 75.0332 41.5007 75.0332 48.9708C75.0332 54.2497 70.9827 59.1633 70.9827 59.1633C70.1527 60.1926 70.5179 61.2218 71.8128 61.5206C71.8128 61.5206 87.2178 64.8074 89.1434 71.2151C89.1766 71.3147 94.4223 97.4768 94.4223 97.4768C94.6879 98.7716 95.1195 98.7716 95.3519 97.4768C95.3519 97.4768 100.598 71.3147 100.631 71.2151C102.556 64.8074 117.961 61.5206 117.961 61.5206C119.256 61.255 119.622 60.1926 118.792 59.1633C118.792 59.1633 114.741 54.2497 114.741 48.9708C114.741 41.5007 119.223 35.4582 124.768 35.4582C130.312 35.4582 134.794 41.5007 134.794 48.9708C134.794 54.2497 130.744 59.1633 130.744 59.1633C129.914 60.1926 130.279 61.2218 131.574 61.5206C131.574 61.5206 146.979 64.8074 148.904 71.2151C148.938 71.3147 154.914 102.39 154.914 102.39C155.146 103.685 155.578 103.685 155.81 102.39C155.81 102.39 161.786 71.3147 161.819 71.2151C163.745 64.8074 179.15 61.5206 179.15 61.5206C180.445 61.255 180.81 60.1926 179.98 59.1633C179.98 59.1633 175.93 54.2497 175.93 48.9708C175.93 41.5007 180.412 35.4582 185.956 35.4582C191.501 35.4582 195.983 41.5007 195.983 48.9708C195.983 54.2497 191.932 59.1633 191.932 59.1633C191.102 60.1926 191.467 61.2218 192.762 61.5206C192.762 61.5206 208.167 64.8074 210.093 71.2151C210.126 71.3479 212.882 74.2032 219.323 125.365C219.522 127.922 213.38 129.283 212.882 126.76Z" fill="#1D7DAB"/>
</svg>
