<svg width="250" height="250" viewBox="0 0 250 250" fill="none" xmlns="http://www.w3.org/2000/svg">
<path d="M125 0C55.9761 0 0 55.9429 0 125C0 194.024 55.9429 250 125 250C194.057 250 250 194.024 250 125C250 55.9761 194.024 0 125 0ZM117.065 202.49C115.737 202.49 114.874 201.428 115.073 200.133L123.24 152.756C123.473 151.461 123.871 149.336 124.17 148.074C124.17 148.074 124.535 146.414 125.664 146.414C126.793 146.414 127.158 148.074 127.158 148.074C127.457 149.369 127.855 151.461 128.088 152.756L136.255 200.133C136.487 201.428 135.591 202.49 134.263 202.49H117.065ZM209.13 110.359C207.802 110.359 206.74 111.421 206.74 112.749V200.1C206.74 201.428 205.677 202.49 204.349 202.49H150.631C149.303 202.49 148.141 201.428 148.008 200.1L141.301 132.039C141.169 130.744 141.003 128.586 140.936 127.258L141.135 102.092C141.069 100.764 141.335 100.73 141.7 101.992C141.7 101.992 150.266 131.673 152.49 142.762C152.988 145.286 159.097 143.924 158.765 141.368C152.357 90.5378 149.635 87.6826 149.602 87.5498C147.809 81.5737 133.964 78.1541 133.964 78.1541C132.703 77.8552 131.64 77.2576 131.64 76.826C131.64 76.4276 132.205 75.166 132.902 74.0372C132.902 74.0372 135.558 69.7875 135.558 65.4383C135.558 58.0345 131.109 52.0252 125.598 52.0252C120.086 52.0252 115.637 58.0345 115.637 65.4383C115.637 69.7875 118.294 74.004 118.294 74.004C118.991 75.1328 119.555 76.3612 119.555 76.7928C119.555 77.1912 118.526 77.7889 117.231 78.1209C117.231 78.1209 103.386 81.5405 101.627 87.5166C101.594 87.6494 98.8712 90.5046 92.4635 141.335C92.1315 143.891 98.2404 145.252 98.7716 142.729C100.996 131.64 109.562 101.959 109.562 101.959C109.927 100.697 110.193 100.73 110.126 102.058L110.325 127.224C110.259 128.552 110.093 130.677 109.96 132.005L103.254 200.066C103.121 201.361 101.959 202.457 100.631 202.457H48.838C47.51 202.457 46.4475 201.394 46.4475 200.066V112.749C46.4475 111.421 45.3851 110.359 44.0571 110.359H32.4369C31.1089 110.359 30.0465 109.296 30.0465 107.968V97.4104C30.0465 96.0823 30.8765 94.3559 31.9057 93.5259L124.668 18.9243C125.697 18.0943 127.357 18.0943 128.386 18.9243L221.149 93.5259C222.178 94.3559 223.008 96.1155 223.008 97.4104V107.968C223.008 109.296 221.946 110.359 220.618 110.359H209.13Z" fill="#1D7DAB"/>
</svg>
