<svg width="247" height="247" viewBox="0 0 247 247" fill="none" xmlns="http://www.w3.org/2000/svg">
<path d="M123.5 0C55.3044 0 0 55.2716 0 123.5C0 191.696 55.2716 247 123.5 247C191.728 247 247 191.696 247 123.5C247 55.3044 191.696 0 123.5 0ZM167.291 208.95C166.504 182.773 165.782 159.451 165.552 151.185C176.574 149.282 185.594 138.031 184.807 124.451C183.856 107.985 177.295 59.0766 177.295 59.0766C177.295 59.0766 176.443 59.0766 174.999 59.0766C174.671 86.6304 175.459 107.001 172.146 107.001C168.406 107.001 167.98 86.6304 167.16 59.0766C166.176 59.0766 165.585 59.0766 164.568 59.0766C164.24 86.6304 165.159 107.001 161.288 107.001C158.139 107.001 157.844 86.6304 157.352 59.0766C156.269 59.0766 155.58 59.0766 154.564 59.0766C153.744 86.6304 152.497 107.001 149.578 107.001C146.822 107.001 147.052 86.6304 146.691 59.0766C145.281 59.0766 144.395 59.0766 144.395 59.0766C144.395 59.0766 137.835 107.985 136.883 124.451C136.096 138.031 145.117 149.282 156.138 151.185C155.876 160.042 155.088 186.119 154.236 214.493C144.559 217.773 134.193 219.577 123.402 219.577C111.855 219.577 100.801 217.544 90.5667 213.804C89.7138 185.496 88.9266 159.648 88.6641 151.251C102.211 147.642 112.577 128.65 112.577 105.721C112.577 80.2012 99.7841 59.5031 84.0062 59.5031C68.2284 59.5031 55.4356 80.2012 55.4356 105.721C55.4356 128.65 65.8011 147.642 79.3483 151.251C79.1187 159.058 78.4299 181.986 77.6426 207.965C47.7599 191.728 27.4882 160.042 27.4882 123.631C27.4882 70.6558 70.4262 27.7178 123.402 27.7178C176.377 27.7178 219.315 70.6558 219.315 123.631C219.348 160.796 198.19 193.008 167.291 208.95Z" fill="#1D7DAB"/>
</svg>
