<svg width="326" height="326" viewBox="0 0 326 326" fill="none" xmlns="http://www.w3.org/2000/svg">
<path d="M163.308 54C102.949 54 54 102.92 54 163.308C54 223.668 102.92 272.617 163.308 272.617C223.697 272.617 272.617 223.668 272.617 163.308C272.617 102.949 223.668 54 163.308 54ZM173.993 245.181H153.844V241.494L173.993 238.591V245.181ZM184.241 235.484L143.566 237.836V234.613L184.27 228.516V235.484H184.241ZM184.241 224.016L143.537 230.113V224.626L184.241 218.529V224.016ZM184.241 213.971L143.537 220.068V214.58L184.241 208.484V213.971ZM184.241 203.954L143.537 210.051V202.851L184.241 200.47V203.954ZM190.106 169.783C180.351 183.602 182.151 182.702 177.477 194.983L150.331 197.887C145.657 185.606 147.457 183.602 137.702 169.783C124.55 151.144 118.337 141.621 118.337 128.266C118.337 99.5525 136.918 83.4973 163.047 83.0909V83.0618C163.192 83.0618 163.338 83.0909 163.483 83.0909C163.628 83.0909 163.773 83.0618 163.918 83.0618C164.063 83.0618 164.209 83.0909 164.354 83.0909C164.499 83.0909 164.644 83.0618 164.789 83.0618V83.0909C190.919 83.4973 209.5 99.5525 209.5 128.266C209.471 141.592 203.287 151.144 190.106 169.783Z" fill="#1D7DAB"/>
<path d="M163.482 225.583C163.337 225.583 163.192 225.612 163.047 225.612H163.889C163.743 225.612 163.627 225.583 163.482 225.583Z" fill="#1D7DAB"/>
<path d="M164.325 225.583C164.179 225.583 164.034 225.612 163.889 225.612H164.731C164.615 225.612 164.47 225.583 164.325 225.583Z" fill="#1D7DAB"/>
</svg>
