<svg width="250" height="250" viewBox="0 0 250 250" fill="none" xmlns="http://www.w3.org/2000/svg">
<path d="M125 0C55.9761 0 0 55.9429 0 125C0 194.024 55.9429 250 125 250C194.057 250 250 194.024 250 125C250 55.9761 194.024 0 125 0ZM138.247 215.671H106.408V180.511H138.247V215.671ZM182.636 105.113C178.254 112.019 168.891 121.448 154.548 133.367C147.112 139.542 142.53 144.489 140.737 148.24C138.944 151.992 138.313 168.393 138.313 168.393H106.408C106.341 163.811 106.275 161.023 106.275 160.027C106.275 149.668 108.001 141.169 111.421 134.495C114.841 127.822 121.68 120.319 131.939 111.985C142.198 103.652 148.307 98.174 150.332 95.6175C153.42 91.5339 154.947 87.0186 154.947 82.1049C154.947 75.2656 152.224 69.4223 146.746 64.5418C141.268 59.6614 133.931 57.2377 124.668 57.2377C115.737 57.2377 108.267 59.7942 102.291 64.8738C96.2815 69.9535 89.907 88.1474 89.907 88.1474L57.6361 84.1301C58.5657 69.1899 64.907 56.5405 76.7264 46.1155C88.5126 35.6906 104.017 30.4781 123.174 30.4781C143.36 30.4781 159.396 35.757 171.315 46.3147C183.234 56.8725 189.21 69.1235 189.21 83.1341C189.21 90.8367 187.019 98.174 182.636 105.113Z" fill="#1D7DAB"/>
</svg>
