<svg width="326" height="326" viewBox="0 0 326 326" fill="none" xmlns="http://www.w3.org/2000/svg">
<path d="M163.308 54C102.949 54 54 102.92 54 163.308C54 223.668 102.92 272.617 163.308 272.617C223.697 272.617 272.617 223.668 272.617 163.308C272.617 102.949 223.668 54 163.308 54ZM119.15 121.821C119.15 120.659 120.079 119.73 121.24 119.73H193.793C194.954 119.73 195.216 120.398 194.403 121.211L150.737 164.296C149.924 165.109 150.07 166.241 151.057 166.792L157.589 170.48C158.576 171.06 158.954 172.338 158.373 173.325L134.218 215.858C133.637 216.845 132.243 217.687 131.082 217.687H121.211C120.05 217.687 119.121 216.758 119.121 215.597V121.821H119.15ZM210.313 237.749C210.313 238.91 209.384 239.839 208.222 239.839H121.24C120.079 239.839 119.15 238.91 119.15 237.749V226.368C119.15 225.206 120.079 224.277 121.24 224.277H208.222C209.384 224.277 210.313 225.206 210.313 226.368V237.749ZM210.313 215.626C210.313 216.787 209.384 217.716 208.222 217.716H137.702C136.54 217.716 136.279 217.048 137.092 216.235L181.919 171.989C182.731 171.176 182.586 170.044 181.599 169.492L175.067 165.805C174.08 165.225 173.702 163.947 174.283 162.96L197.77 121.559C198.351 120.572 199.745 119.73 200.906 119.73H208.222C209.384 119.73 210.313 120.659 210.313 121.821V215.626ZM210.313 111.108C210.313 112.269 209.384 113.198 208.222 113.198H204.622C203.461 113.198 201.603 113.198 200.441 113.198H121.24C120.079 113.198 119.15 112.269 119.15 111.108V97.5492C119.15 96.3879 120.079 95.4589 121.24 95.4589H144.786C145.947 95.4589 146.876 94.5298 146.876 93.3685V83.9038C146.876 82.7425 147.805 81.8134 148.966 81.8134H180.467C181.628 81.8134 182.557 82.7425 182.557 83.9038V93.3685C182.557 94.5298 183.486 95.4589 184.648 95.4589H208.193C209.355 95.4589 210.284 96.3879 210.284 97.5492V111.108H210.313Z" fill="#1D7DAB"/>
</svg>
