<svg width="326" height="326" viewBox="0 0 326 326" fill="none" xmlns="http://www.w3.org/2000/svg">
<path d="M163.308 54C102.949 54 54 102.92 54 163.308C54 223.668 102.92 272.617 163.308 272.617C223.697 272.617 272.617 223.668 272.617 163.308C272.617 102.949 223.668 54 163.308 54ZM223 154.715C215.974 155.383 211.677 158.576 208.745 172.947C205.696 188.044 196.203 216.787 190.628 222.361C187.435 225.555 183.69 218.703 183.69 214.232L180.786 193.822C180.351 193.851 122.256 193.764 120.892 193.619C115.521 206.974 107.972 222.361 101.73 222.361C97.2298 222.361 93.6007 218.384 93.6007 213.477C93.6007 213.477 93.6007 169.173 93.6007 167.838C93.6007 164.383 94.4427 161.073 95.9234 158.054C75.7456 121.385 113.633 87.0974 108.378 101.323C99.0299 126.756 105.911 138.253 109.395 145.279C114.011 143.073 119.324 141.795 125.043 141.795H164.005C190.657 141.795 191.848 122.343 191.848 122.343C191.848 112.704 197.538 103.994 205.261 103.182C208.513 102.833 215.103 103.065 218.297 103.675C225.061 104.953 233.423 113.401 238.155 123.33C245.181 125.479 250.988 120.921 248.752 137.789C246.865 151.812 225.148 154.512 223 154.715Z" fill="#1D7DAB"/>
<path d="M213.828 125.363C213.828 135.727 209.937 144.118 205.118 144.118C200.299 144.118 196.408 135.727 196.408 125.363C196.408 123.185 200.299 106.607 205.118 106.607C209.937 106.607 213.828 121.937 213.828 125.363Z" fill="#1D7DAB"/>
</svg>
