<svg width="250" height="250" viewBox="0 0 250 250" fill="none" xmlns="http://www.w3.org/2000/svg">
<path d="M125 0C55.9761 0 0 55.9429 0 125C0 194.057 55.9761 250 125 250C194.024 250 250 194.024 250 125C250 55.9761 194.024 0 125 0ZM211.155 158.632C211.155 159.96 210.093 161.023 208.765 161.023H191.633C190.305 161.023 189.675 162.019 190.206 163.214C190.206 163.214 203.054 192.098 203.054 198.406C203.054 207.968 194.622 215.704 184.23 215.704C173.838 215.704 165.405 207.968 165.405 198.406C165.405 192.098 178.254 163.214 178.254 163.214C178.785 162.019 178.154 161.023 176.826 161.023H158.3C156.972 161.023 155.976 159.96 156.076 158.632C156.076 158.632 156.474 153.187 156.474 141.467C156.474 129.748 165.837 127.988 165.837 127.988C167.131 127.756 167.397 126.826 166.434 125.93L157.769 115.936C156.441 115.87 154.316 115.837 152.988 115.837H40.0066C38.6786 115.837 37.6162 114.774 37.6162 113.446V85.2922C37.6162 83.9641 38.6786 82.9017 40.0066 82.9017H95.1195C96.4475 82.9017 97.4436 82.5697 97.4104 82.1713C97.4104 82.1713 97.4104 82.1713 97.4104 81.8061C97.4104 73.0744 111.023 66.9655 111.023 66.9655C112.218 66.4343 113.745 66.0027 114.376 66.0027C115.04 66.0027 115.571 64.9402 115.571 63.6122V62.7158C115.571 61.3878 114.608 59.8606 113.413 59.2962L107.835 55.1793C106.972 54.2165 105.312 53.9841 104.216 54.6813C104.216 54.6813 94.5551 60.8234 85.757 60.8234C72.7756 60.8234 62.2178 54.2829 62.2178 46.2151C62.2178 38.1474 72.7424 31.6069 85.757 31.6069C94.5219 31.6069 104.216 37.749 104.216 37.749C105.312 38.4462 107.005 38.2802 107.935 37.3506C107.935 37.3506 113.712 31.6069 119.323 31.6069C124.934 31.6069 130.71 37.3506 130.71 37.3506C131.64 38.2802 133.333 38.4462 134.429 37.749C134.429 37.749 144.09 31.6069 152.888 31.6069C165.87 31.6069 176.428 38.1474 176.428 46.2151C176.428 54.2829 165.903 60.8234 152.888 60.8234C144.124 60.8234 134.429 54.6813 134.429 54.6813C133.333 53.9841 131.707 54.2165 130.81 55.1793L125.232 59.2962C124.037 59.8606 123.074 61.421 123.074 62.7158V63.6122C123.074 64.9402 123.606 66.0027 124.27 66.0027C124.934 66.0027 126.428 66.4343 127.623 66.9655C127.623 66.9655 141.235 73.0744 141.235 81.8061C141.235 82.1713 141.235 82.1713 141.235 82.1713C141.169 82.5697 141.368 82.9017 141.667 82.9017C141.667 82.9017 141.667 82.9017 141.932 82.9017C206.673 82.9017 201.361 125.166 201.361 125.166C201.195 126.461 202.125 127.523 203.453 127.523H208.699C210.027 127.523 211.089 128.586 211.089 129.914V158.632H211.155Z" fill="#1D7DAB"/>
</svg>
