<svg width="326" height="326" viewBox="0 0 326 326" fill="none" xmlns="http://www.w3.org/2000/svg">
<path d="M188.471 161.531C188.471 164.986 185.654 167.802 182.199 167.802H142.221C138.766 167.802 135.95 164.986 135.95 161.531V132.208C135.95 128.753 138.766 125.937 142.221 125.937H182.199C185.654 125.937 188.471 128.753 188.471 132.208V161.531Z" fill="#1D7DAB"/>
<path d="M135.95 175.784C135.95 174.681 136.995 173.781 138.244 173.781H149.044C150.321 173.781 151.367 174.681 151.367 175.784V185.598C151.367 186.701 150.321 187.601 149.044 187.601H138.244C136.966 187.601 135.95 186.701 135.95 185.598V175.784Z" fill="#1D7DAB"/>
<path d="M154.504 175.784C154.504 174.681 155.549 173.781 156.798 173.781H167.598C168.875 173.781 169.892 174.681 169.892 175.784V185.598C169.892 186.701 168.846 187.601 167.598 187.601H156.798C155.52 187.601 154.504 186.701 154.504 185.598V175.784Z" fill="#1D7DAB"/>
<path d="M173.081 175.784C173.081 174.681 174.126 173.781 175.403 173.781H186.204C187.481 173.781 188.497 174.681 188.497 175.784V185.598C188.497 186.701 187.452 187.601 186.204 187.601H175.403C174.126 187.601 173.081 186.701 173.081 185.598V175.784Z" fill="#1D7DAB"/>
<path d="M135.95 192.363C135.95 191.259 136.995 190.359 138.244 190.359H149.044C150.321 190.359 151.367 191.259 151.367 192.363V202.176C151.367 203.279 150.321 204.179 149.044 204.179H138.244C136.966 204.179 135.95 203.279 135.95 202.176V192.363Z" fill="#1D7DAB"/>
<path d="M154.504 192.363C154.504 191.259 155.549 190.359 156.798 190.359H167.598C168.875 190.359 169.892 191.259 169.892 192.363V202.176C169.892 203.279 168.846 204.179 167.598 204.179H156.798C155.52 204.179 154.504 203.279 154.504 202.176V192.363Z" fill="#1D7DAB"/>
<path d="M173.081 192.363C173.081 191.259 174.126 190.359 175.403 190.359H186.204C187.481 190.359 188.497 191.259 188.497 192.363V202.176C188.497 203.279 187.452 204.179 186.204 204.179H175.403C174.126 204.179 173.081 203.279 173.081 202.176V192.363Z" fill="#1D7DAB"/>
<path d="M135.95 208.939C135.95 207.836 136.995 206.936 138.244 206.936H149.044C150.321 206.936 151.367 207.836 151.367 208.939V218.752C151.367 219.855 150.321 220.755 149.044 220.755H138.244C136.966 220.755 135.95 219.855 135.95 218.752V208.939Z" fill="#1D7DAB"/>
<path d="M154.504 208.939C154.504 207.836 155.549 206.936 156.798 206.936H167.598C168.875 206.936 169.892 207.836 169.892 208.939V218.752C169.892 219.855 168.846 220.755 167.598 220.755H156.798C155.52 220.755 154.504 219.855 154.504 218.752V208.939Z" fill="#1D7DAB"/>
<path d="M173.081 208.939C173.081 207.836 174.126 206.936 175.403 206.936H186.204C187.481 206.936 188.497 207.836 188.497 208.939V218.752C188.497 219.855 187.452 220.755 186.204 220.755H175.403C174.126 220.755 173.081 219.855 173.081 218.752V208.939Z" fill="#1D7DAB"/>
<path d="M172.996 113.423C172.996 115.687 168.176 117.516 162.196 117.516C156.244 117.516 151.425 115.687 151.425 113.423C151.425 111.158 156.244 109.329 162.196 109.329C168.176 109.329 172.996 111.158 172.996 113.423Z" fill="#1D7DAB"/>
<path d="M172.996 235.217C172.996 237.481 168.176 239.31 162.196 239.31C156.244 239.31 151.425 237.481 151.425 235.217C151.425 232.952 156.244 231.123 162.196 231.123C168.176 231.152 172.996 232.981 172.996 235.217Z" fill="#1D7DAB"/>
<path d="M163.096 53.3828C102.736 53.3828 53.7871 102.303 53.7871 162.691C53.7871 223.051 102.707 272 163.096 272C223.484 272 272.404 223.051 272.404 162.691C272.404 102.332 223.455 53.3828 163.096 53.3828ZM180.835 78.0897C180.835 74.7219 183.564 71.9638 186.961 71.9638C190.328 71.9638 193.087 74.6929 193.087 78.0897V103.116C193.087 103.116 188.993 96.2933 180.864 93.0416V78.0897H180.835ZM194.741 220.06C194.741 236.493 183.825 249.819 170.354 249.819H154.095C140.624 249.819 129.708 236.493 129.708 220.06V124.629C129.708 108.197 140.624 94.8707 154.095 94.8707H170.354C174.128 94.8707 177.67 95.9449 180.864 97.803C180.864 97.803 191.432 103.087 193.087 113.858C193.551 116.849 193.754 117.342 193.812 116.5C194.422 119.084 194.77 121.813 194.77 124.629V220.06H194.741Z" fill="#1D7DAB"/>
</svg>
