<svg width="76" height="75" viewBox="0 0 76 75" fill="none" xmlns="http://www.w3.org/2000/svg">
<path d="M37.6999 0C16.9928 0 0.199951 16.7829 0.199951 37.5C0.199951 58.2072 16.9828 75 37.6999 75C58.4171 75 75.2 58.2072 75.2 37.5C75.2 16.7928 58.4071 0 37.6999 0ZM22.5505 23.2669C22.5505 22.8685 22.8693 22.5498 23.2677 22.5498H48.1581C48.5565 22.5498 48.6462 22.7789 48.3673 23.0578L33.3872 37.8386C33.1083 38.1175 33.1581 38.506 33.4968 38.6952L35.7378 39.9602C36.0764 40.1594 36.2059 40.5976 36.0067 40.9363L27.7199 55.5279C27.5207 55.8665 27.0426 56.1554 26.6442 56.1554H23.2577C22.8593 56.1554 22.5406 55.8367 22.5406 55.4382V23.2669H22.5505ZM53.8254 63.0379C53.8254 63.4363 53.5067 63.755 53.1083 63.755H23.2677C22.8693 63.755 22.5505 63.4363 22.5505 63.0379V59.1335C22.5505 58.7351 22.8693 58.4163 23.2677 58.4163H53.1083C53.5067 58.4163 53.8254 58.7351 53.8254 59.1335V63.0379ZM53.8254 55.4482C53.8254 55.8466 53.5067 56.1653 53.1083 56.1653H28.9151C28.5167 56.1653 28.427 55.9363 28.7059 55.6574L44.0844 40.4781C44.3633 40.1992 44.3135 39.8108 43.9748 39.6215L41.7338 38.3566C41.3952 38.1574 41.2657 37.7191 41.4649 37.3805L49.5227 23.1773C49.7219 22.8386 50.2 22.5498 50.5984 22.5498H53.1083C53.5067 22.5498 53.8254 22.8685 53.8254 23.2669V55.4482ZM53.8254 19.5916C53.8254 19.99 53.5067 20.3088 53.1083 20.3088H51.8733C51.4748 20.3088 50.8374 20.3088 50.439 20.3088H23.2677C22.8693 20.3088 22.5505 19.99 22.5505 19.5916V14.9402C22.5505 14.5418 22.8693 14.2231 23.2677 14.2231H31.3454C31.7438 14.2231 32.0625 13.9044 32.0625 13.506V10.259C32.0625 9.86056 32.3812 9.54183 32.7796 9.54183H43.5864C43.9848 9.54183 44.3035 9.86056 44.3035 10.259V13.506C44.3035 13.9044 44.6223 14.2231 45.0207 14.2231H53.0984C53.4968 14.2231 53.8155 14.5418 53.8155 14.9402V19.5916H53.8254Z" fill="#1D7DAB"/>
</svg>
