<svg width="75" height="75" viewBox="0 0 75 75" fill="none" xmlns="http://www.w3.org/2000/svg">
<path d="M46.2052 37.1015C46.2052 38.2868 45.239 39.2529 44.0538 39.2529H30.3387C29.1534 39.2529 28.1873 38.2868 28.1873 37.1015V27.0418C28.1873 25.8565 29.1534 24.8904 30.3387 24.8904H44.0538C45.239 24.8904 46.2052 25.8565 46.2052 27.0418V37.1015Z" fill="#1D7DAB"/>
<path d="M28.1873 41.9919C28.1873 41.6134 28.5458 41.3047 28.9741 41.3047H32.6793C33.1175 41.3047 33.4761 41.6134 33.4761 41.9919V45.3585C33.4761 45.737 33.1175 46.0457 32.6793 46.0457H28.9741C28.5359 46.0457 28.1873 45.737 28.1873 45.3585V41.9919Z" fill="#1D7DAB"/>
<path d="M34.5518 41.9919C34.5518 41.6134 34.9104 41.3047 35.3387 41.3047H39.0439C39.4821 41.3047 39.8307 41.6134 39.8307 41.9919V45.3585C39.8307 45.737 39.4721 46.0457 39.0439 46.0457H35.3387C34.9004 46.0457 34.5518 45.737 34.5518 45.3585V41.9919Z" fill="#1D7DAB"/>
<path d="M40.9263 41.9919C40.9263 41.6134 41.2849 41.3047 41.7231 41.3047H45.4283C45.8666 41.3047 46.2152 41.6134 46.2152 41.9919V45.3585C46.2152 45.737 45.8566 46.0457 45.4283 46.0457H41.7231C41.2849 46.0457 40.9263 45.737 40.9263 45.3585V41.9919Z" fill="#1D7DAB"/>
<path d="M28.1873 47.6792C28.1873 47.3007 28.5458 46.9919 28.9741 46.9919H32.6793C33.1175 46.9919 33.4761 47.3007 33.4761 47.6792V51.0457C33.4761 51.4242 33.1175 51.733 32.6793 51.733H28.9741C28.5359 51.733 28.1873 51.4242 28.1873 51.0457V47.6792Z" fill="#1D7DAB"/>
<path d="M34.5518 47.6792C34.5518 47.3007 34.9104 46.9919 35.3387 46.9919H39.0439C39.4821 46.9919 39.8307 47.3007 39.8307 47.6792V51.0457C39.8307 51.4242 39.4721 51.733 39.0439 51.733H35.3387C34.9004 51.733 34.5518 51.4242 34.5518 51.0457V47.6792Z" fill="#1D7DAB"/>
<path d="M40.9263 47.6792C40.9263 47.3007 41.2849 46.9919 41.7231 46.9919H45.4283C45.8666 46.9919 46.2152 47.3007 46.2152 47.6792V51.0457C46.2152 51.4242 45.8566 51.733 45.4283 51.733H41.7231C41.2849 51.733 40.9263 51.4242 40.9263 51.0457V47.6792Z" fill="#1D7DAB"/>
<path d="M28.1873 53.3664C28.1873 52.988 28.5458 52.6792 28.9741 52.6792H32.6793C33.1175 52.6792 33.4761 52.988 33.4761 53.3664V56.733C33.4761 57.1115 33.1175 57.4202 32.6793 57.4202H28.9741C28.5359 57.4202 28.1873 57.1115 28.1873 56.733V53.3664Z" fill="#1D7DAB"/>
<path d="M34.5518 53.3664C34.5518 52.988 34.9104 52.6792 35.3387 52.6792H39.0439C39.4821 52.6792 39.8307 52.988 39.8307 53.3664V56.733C39.8307 57.1115 39.4721 57.4202 39.0439 57.4202H35.3387C34.9004 57.4202 34.5518 57.1115 34.5518 56.733V53.3664Z" fill="#1D7DAB"/>
<path d="M40.9263 53.3664C40.9263 52.988 41.2849 52.6792 41.7231 52.6792H45.4283C45.8666 52.6792 46.2152 52.988 46.2152 53.3664V56.733C46.2152 57.1115 45.8566 57.4202 45.4283 57.4202H41.7231C41.2849 57.4202 40.9263 57.1115 40.9263 56.733V53.3664Z" fill="#1D7DAB"/>
<path d="M40.8964 20.5977C40.8964 21.3746 39.243 22.0021 37.1913 22.0021C35.1494 22.0021 33.496 21.3746 33.496 20.5977C33.496 19.8208 35.1494 19.1934 37.1913 19.1934C39.243 19.1934 40.8964 19.8208 40.8964 20.5977Z" fill="#1D7DAB"/>
<path d="M40.8964 62.3805C40.8964 63.1573 39.243 63.7848 37.1913 63.7848C35.1494 63.7848 33.496 63.1573 33.496 62.3805C33.496 61.6036 35.1494 60.9761 37.1913 60.9761C39.243 60.986 40.8964 61.6135 40.8964 62.3805Z" fill="#1D7DAB"/>
<path d="M37.5 0C16.7928 0 0 16.7829 0 37.5C0 58.2072 16.7829 75 37.5 75C58.2171 75 75 58.2072 75 37.5C75 16.7928 58.2072 0 37.5 0ZM43.5857 8.4761C43.5857 7.32072 44.5219 6.3745 45.6872 6.3745C46.8426 6.3745 47.7888 7.31076 47.7888 8.4761V17.0618C47.7888 17.0618 46.3845 14.7211 43.5956 13.6056V8.4761H43.5857ZM48.3566 57.1813C48.3566 62.8187 44.6115 67.3904 39.99 67.3904H34.4123C29.7908 67.3904 26.0458 62.8187 26.0458 57.1813V24.4422C26.0458 18.8048 29.7908 14.2331 34.4123 14.2331H39.99C41.2849 14.2331 42.5 14.6016 43.5956 15.239C43.5956 15.239 47.2211 17.0518 47.7888 20.747C47.9482 21.7729 48.0179 21.9422 48.0378 21.6534C48.247 22.5398 48.3665 23.4761 48.3665 24.4422V57.1813H48.3566Z" fill="#1D7DAB"/>
</svg>
