<svg width="76" height="75" viewBox="0 0 76 75" fill="none" xmlns="http://www.w3.org/2000/svg">
<path d="M38 0C17.2928 0 0.5 16.7829 0.5 37.5C0.5 58.2072 17.2829 75 38 75C58.7171 75 75.5 58.2072 75.5 37.5C75.5 16.7928 58.7072 0 38 0ZM60.8884 45.1394C60.8884 45.5378 60.5697 45.8566 60.1713 45.8566H46.7649C46.3665 45.8566 46.0478 46.1753 46.0478 46.5737V59.9701C46.0478 60.3685 45.7291 60.6873 45.3307 60.6873H30.6195C30.2211 60.6873 29.9024 60.3685 29.9024 59.9701V46.5737C29.9024 46.1753 29.5837 45.8566 29.1853 45.8566H15.7888C15.3904 45.8566 15.0717 45.5378 15.0717 45.1394V30.4283C15.0717 30.0299 15.3904 29.7112 15.7888 29.7112H29.1853C29.5837 29.7112 29.9024 29.3924 29.9024 28.994V15.5877C29.9024 15.1892 30.2211 14.8705 30.6195 14.8705H45.3307C45.7291 14.8705 46.0478 15.1892 46.0478 15.5877V28.994C46.0478 29.3924 46.3665 29.7112 46.7649 29.7112H60.1713C60.5697 29.7112 60.8884 30.0299 60.8884 30.4283V45.1394Z" fill="#1D7DAB"/>
</svg>
