<svg width="75" height="76" viewBox="0 0 75 76" fill="none" xmlns="http://www.w3.org/2000/svg">
<path d="M37.5 0.340088C16.7928 0.340088 0 17.123 0 37.8401C0 58.5473 16.7829 75.3401 37.5 75.3401C58.2171 75.3401 75 58.5473 75 37.8401C75 17.1329 58.2072 0.340088 37.5 0.340088ZM50.7968 63.7863C50.5578 55.8381 50.3386 48.7564 50.2689 46.2465C53.6155 45.6688 56.3546 42.2524 56.1155 38.1289C55.8267 33.1289 53.8347 18.2783 53.8347 18.2783C53.8347 18.2783 53.5757 18.2783 53.1375 18.2783C53.0378 26.6449 53.2769 32.8301 52.2709 32.8301C51.1355 32.8301 51.006 26.6449 50.757 18.2783C50.4582 18.2783 50.2789 18.2783 49.9701 18.2783C49.8705 26.6449 50.1494 32.8301 48.9741 32.8301C48.0179 32.8301 47.9283 26.6449 47.7789 18.2783C47.4502 18.2783 47.241 18.2783 46.9323 18.2783C46.6833 26.6449 46.3048 32.8301 45.4183 32.8301C44.5817 32.8301 44.6514 26.6449 44.5418 18.2783C44.1135 18.2783 43.8446 18.2783 43.8446 18.2783C43.8446 18.2783 41.8526 33.1289 41.5637 38.1289C41.3247 42.2524 44.0637 45.6688 47.4104 46.2465C47.3307 48.9357 47.0916 56.854 46.8327 65.4696C43.8944 66.4656 40.747 67.0134 37.4701 67.0134C33.9641 67.0134 30.6076 66.3959 27.5 65.2604C27.241 56.6648 27.002 48.8162 26.9223 46.2664C31.0359 45.1708 34.1833 39.4038 34.1833 32.4417C34.1833 24.6927 30.2988 18.4078 25.508 18.4078C20.7171 18.4078 16.8327 24.6927 16.8327 32.4417C16.8327 39.4038 19.9801 45.1708 24.0936 46.2664C24.0239 48.6369 23.8147 55.599 23.5757 63.4875C14.502 58.5572 8.34661 48.9357 8.34661 37.8799C8.34661 21.7943 21.3845 8.75642 37.4701 8.75642C53.5558 8.75642 66.5936 21.7943 66.5936 37.8799C66.6036 49.1648 60.1793 58.9457 50.7968 63.7863Z" fill="#1D7DAB"/>
</svg>
