<svg width="76" height="75" viewBox="0 0 76 75" fill="none" xmlns="http://www.w3.org/2000/svg">
<path d="M37.8 0C17.0929 0 0.300049 16.7829 0.300049 37.5C0.300049 58.2072 17.0829 75 37.8 75C58.5172 75 75.3 58.2072 75.3 37.5C75.3 16.7928 58.5072 0 37.8 0ZM38.3977 62.0219C38.059 62.2211 37.5012 62.2211 37.1526 62.0219C37.1526 62.0219 12.0132 47.4203 12.0132 28.6155C12.0132 21.504 17.7801 15.7371 24.8917 15.7371C30.3598 15.7371 37.7702 19.0239 37.7702 26.1355C37.7702 19.0239 44.9116 15.7371 50.6487 15.7371C57.7602 15.7371 63.5271 21.504 63.5271 28.6155C63.5471 47.4203 38.3977 62.0219 38.3977 62.0219Z" fill="#1D7DAB"/>
</svg>
