<svg width="76" height="75" viewBox="0 0 76 75" fill="none" xmlns="http://www.w3.org/2000/svg">
<path d="M16.5363 22.1315H54.9526V18.1475H16.5363" fill="#1D7DAB"/>
<path d="M37.9407 27.4303H55.8092V25.4382H37.9407" fill="#1D7DAB"/>
<path d="M37.9407 30.9859H55.8092V28.9939H37.9407" fill="#1D7DAB"/>
<path d="M37.9407 34.5318H55.8092V32.5398H37.9407" fill="#1D7DAB"/>
<path d="M37.9407 38.0777H55.8092V36.0857H37.9407" fill="#1D7DAB"/>
<path d="M37.9407 41.6334H55.8092V39.6414H37.9407" fill="#1D7DAB"/>
<path d="M37.9407 45.1793H55.8092V43.1873H37.9407" fill="#1D7DAB"/>
<path d="M37.9407 48.7252H55.8092V46.7332H37.9407" fill="#1D7DAB"/>
<path d="M16.5363 52.8885H55.8092V50.8965H16.5363" fill="#1D7DAB"/>
<path d="M16.5363 56.5736H55.8092V54.5815H16.5363" fill="#1D7DAB"/>
<path d="M38.1 0C17.3928 0 0.599976 16.7829 0.599976 37.5C0.599976 58.2072 17.3828 75 38.1 75C58.8171 75 75.6 58.2072 75.6 37.5C75.6 16.7928 58.8071 0 38.1 0ZM58.7573 59.5418H58.09H13.837V14.6315H58.7474V51.8327L61.5362 19.7012H67.6817L58.7573 59.5418Z" fill="#1D7DAB"/>
<path d="M25.0222 43.2668C24.8629 43.2668 24.8629 43.2668 24.8629 43.2668C24.7931 43.5856 24.6736 44.1633 24.6139 44.5517L24.1856 47.0218C24.1158 47.4103 24.3848 47.729 24.7832 47.729H25.2812C25.6796 47.729 25.9485 47.4103 25.8788 47.0218L25.4505 44.5517C25.3808 44.1633 25.2712 43.5856 25.1915 43.2668C25.1915 43.2668 25.1915 43.2668 25.0222 43.2668Z" fill="#1D7DAB"/>
<path d="M33.5183 27.1515C33.5183 26.7531 33.1995 26.4343 32.8011 26.4343H17.2633C16.8649 26.4343 16.5461 26.7531 16.5461 27.1515V47.012C16.5461 47.4104 16.8649 47.7291 17.2633 47.7291H21.3967C21.7951 47.7291 22.1438 47.4104 22.1836 47.012L22.7214 41.5439C22.7613 41.1554 22.8111 40.508 22.831 40.1096L22.7613 37.1813C22.7812 36.7829 22.7015 36.773 22.592 37.1515C22.592 37.1515 21.4465 41.1156 21.1179 42.7291C21.0382 43.0977 20.1517 42.8985 20.2015 42.5299C21.1278 35.1295 21.5262 34.7112 21.5362 34.6913C21.8151 33.765 23.6776 33.3666 23.6776 33.3666C24.0661 33.2869 24.1756 32.9682 23.9266 32.6694C23.9266 32.6694 23.578 32.2511 23.578 31.4841C23.578 30.4084 24.2254 29.5319 25.0322 29.5319C25.839 29.5319 26.4864 30.4084 26.4864 31.4841C26.4864 32.2511 26.1378 32.6694 26.1378 32.6694C25.8888 32.9781 25.9983 33.2869 26.3868 33.3666C26.3868 33.3666 28.2593 33.765 28.5282 34.6913C28.5382 34.7112 28.9366 35.1295 29.8629 42.5299C29.9127 42.8985 29.0262 43.0977 28.9465 42.7291C28.6179 41.1156 27.4724 37.1515 27.4724 37.1515C27.3629 36.773 27.2633 36.7829 27.2434 37.1813C27.2434 37.1813 27.2135 37.7989 27.2533 38.5558C27.2932 39.3327 27.2832 40.1096 27.2832 40.1096C27.2832 40.508 27.3131 41.1455 27.343 41.5439L27.8808 47.012C27.9206 47.4005 28.2692 47.7291 28.6677 47.7291H32.8011C33.1995 47.7291 33.5183 47.4104 33.5183 47.012V27.1515Z" fill="#1D7DAB"/>
</svg>
