<svg width="75" height="75" viewBox="0 0 75 75" fill="none" xmlns="http://www.w3.org/2000/svg">
<path d="M37.5 0C16.7928 0 0 16.7829 0 37.5C0 58.2072 16.7829 75 37.5 75C58.2171 75 75 58.2072 75 37.5C75 16.7928 58.2072 0 37.5 0ZM41.4741 64.7012H31.9223V54.1534H41.4741V64.7012ZM54.7908 31.5339C53.4761 33.6056 50.6673 36.4343 46.3645 40.01C44.1335 41.8625 42.759 43.3466 42.2211 44.4721C41.6833 45.5976 41.494 50.5179 41.494 50.5179H31.9223C31.9024 49.1434 31.8825 48.3068 31.8825 48.008C31.8825 44.9004 32.4004 42.3506 33.4263 40.3486C34.4522 38.3466 36.504 36.0956 39.5817 33.5956C42.6594 31.0956 44.492 29.4522 45.0996 28.6853C46.0259 27.4602 46.4841 26.1056 46.4841 24.6315C46.4841 22.5797 45.6673 20.8267 44.0239 19.3626C42.3805 17.8984 40.1793 17.1713 37.4004 17.1713C34.7211 17.1713 32.4801 17.9382 30.6873 19.4622C28.8845 20.9861 26.9721 26.4442 26.9721 26.4442L17.2908 25.239C17.5697 20.757 19.4721 16.9622 23.0179 13.8347C26.5538 10.7072 31.2052 9.14343 36.9522 9.14343C43.008 9.14343 47.8187 10.7271 51.3944 13.8944C54.9701 17.0618 56.7629 20.7371 56.7629 24.9402C56.7629 27.251 56.1056 29.4522 54.7908 31.5339Z" fill="#1D7DAB"/>
</svg>
