<svg width="76" height="75" viewBox="0 0 76 75" fill="none" xmlns="http://www.w3.org/2000/svg">
<path d="M38.3999 0C17.6927 0 0.899902 16.7829 0.899902 37.5C0.899902 58.2072 17.6828 75 38.3999 75C59.117 75 75.8999 58.2072 75.8999 37.5C75.8999 16.7928 59.1071 0 38.3999 0ZM42.0652 65.5877H35.1529V64.3227L42.0652 63.3267V65.5877ZM45.5812 62.261L31.627 63.0677V61.9622L45.5911 59.8705V62.261H45.5812ZM45.5812 58.3267L31.617 60.4183V58.5359L45.5812 56.4442V58.3267ZM45.5812 54.8805L31.617 56.9721V55.0896L45.5812 52.998V54.8805ZM45.5812 51.4442L31.617 53.5359V51.0657L45.5812 50.249V51.4442ZM47.5931 39.7211C44.2465 44.4622 44.864 44.1534 43.2605 48.3665L33.9477 49.3625C32.3441 45.1494 32.9617 44.4622 29.615 39.7211C25.1031 33.3267 22.9716 30.0598 22.9716 25.4781C22.9716 15.6275 29.3461 10.1195 38.3103 9.98008V9.97012C38.3601 9.97012 38.4099 9.98008 38.4597 9.98008C38.5095 9.98008 38.5593 9.97012 38.6091 9.97012C38.6589 9.97012 38.7087 9.98008 38.7585 9.98008C38.8083 9.98008 38.8581 9.97012 38.9079 9.97012V9.98008C47.872 10.1195 54.2465 15.6275 54.2465 25.4781C54.2366 30.0498 52.115 33.3267 47.5931 39.7211Z" fill="#1D7DAB"/>
<path d="M38.4597 58.8645C38.4099 58.8645 38.3601 58.8745 38.3103 58.8745H38.5991C38.5493 58.8745 38.5095 58.8645 38.4597 58.8645Z" fill="#1D7DAB"/>
<path d="M38.7485 58.8645C38.6987 58.8645 38.6489 58.8745 38.5991 58.8745H38.888C38.8481 58.8745 38.7983 58.8645 38.7485 58.8645Z" fill="#1D7DAB"/>
</svg>
