<svg width="76" height="75" viewBox="0 0 76 75" fill="none" xmlns="http://www.w3.org/2000/svg">
<path d="M38.3999 0C17.6927 0 0.899902 16.7829 0.899902 37.5C0.899902 58.2072 17.6828 75 38.3999 75C59.117 75 75.8999 58.2072 75.8999 37.5C75.8999 16.7928 59.1071 0 38.3999 0ZM36.0194 60.747C35.621 60.747 35.3621 60.4283 35.4218 60.0398L37.872 45.8267C37.9417 45.4382 38.0613 44.8008 38.1509 44.4223C38.1509 44.4223 38.2605 43.9243 38.5991 43.9243C38.9377 43.9243 39.0473 44.4223 39.0473 44.4223C39.137 44.8108 39.2565 45.4382 39.3262 45.8267L41.7764 60.0398C41.8461 60.4283 41.5772 60.747 41.1788 60.747H36.0194ZM63.6389 33.1076C63.2405 33.1076 62.9218 33.4263 62.9218 33.8247V60.0299C62.9218 60.4283 62.6031 60.747 62.2047 60.747H46.0891C45.6907 60.747 45.3421 60.4283 45.3023 60.0299L43.2903 39.6116C43.2505 39.2231 43.2007 38.5757 43.1808 38.1773L43.2405 30.6275C43.2206 30.2291 43.3003 30.2191 43.4099 30.5976C43.4099 30.5976 45.9796 39.502 46.6469 42.8287C46.7963 43.5857 48.629 43.1773 48.5294 42.4104C46.6071 27.1614 45.7903 26.3048 45.7804 26.2649C45.2425 24.4721 41.0891 23.4462 41.0891 23.4462C40.7107 23.3566 40.3919 23.1773 40.3919 23.0478C40.3919 22.9283 40.5613 22.5498 40.7704 22.2112C40.7704 22.2112 41.5672 20.9363 41.5672 19.6315C41.5672 17.4104 40.2326 15.6076 38.5792 15.6076C36.9258 15.6076 35.5911 17.4104 35.5911 19.6315C35.5911 20.9363 36.388 22.2012 36.388 22.2012C36.5971 22.5398 36.7664 22.9084 36.7664 23.0378C36.7664 23.1574 36.4577 23.3367 36.0692 23.4363C36.0692 23.4363 31.9158 24.4622 31.3879 26.255C31.378 26.2948 30.5613 27.1514 28.6389 42.4004C28.5393 43.1673 30.372 43.5757 30.5314 42.8187C31.1987 39.492 33.7684 30.5876 33.7684 30.5876C33.878 30.2092 33.9577 30.2191 33.9377 30.6175L33.9975 38.1673C33.9776 38.5657 33.9278 39.2032 33.888 39.6016L31.876 60.0199C31.8362 60.4084 31.4876 60.7371 31.0891 60.7371H15.5513C15.1529 60.7371 14.8342 60.4183 14.8342 60.0199V33.8247C14.8342 33.4263 14.5154 33.1076 14.117 33.1076H10.631C10.2326 33.1076 9.91385 32.7888 9.91385 32.3904V29.2231C9.91385 28.8247 10.1629 28.3068 10.4716 28.0578L38.3003 5.67729C38.6091 5.42829 39.1071 5.42829 39.4158 5.67729L67.2445 28.0578C67.5533 28.3068 67.8023 28.8347 67.8023 29.2231V32.3904C67.8023 32.7888 67.4836 33.1076 67.0852 33.1076H63.6389Z" fill="#1D7DAB"/>
</svg>
