<svg width="75" height="76" viewBox="0 0 75 76" fill="none" xmlns="http://www.w3.org/2000/svg">
<path d="M37.5 0.340088C16.7928 0.340088 0 17.123 0 37.8401C0 58.5473 16.7829 75.3401 37.5 75.3401C58.2171 75.3401 75 58.5473 75 37.8401C75 17.1329 58.2072 0.340088 37.5 0.340088ZM57.9781 34.8919C55.5677 35.121 54.0936 36.2166 53.0876 41.1469C52.0418 46.3261 48.7849 56.1867 46.8725 58.0991C45.7769 59.1947 44.492 56.8441 44.492 55.3102L43.496 48.3082C43.3466 48.3182 23.4163 48.2883 22.9482 48.2385C21.1056 52.8202 18.5159 58.0991 16.3745 58.0991C14.8307 58.0991 13.5857 56.7345 13.5857 55.0512C13.5857 55.0512 13.5857 39.852 13.5857 39.3939C13.5857 38.2086 13.8745 37.0732 14.3825 36.0373C7.46016 23.4576 20.4582 11.6947 18.6554 16.5751C15.4482 25.3002 17.8088 29.2445 19.004 31.6548C20.5876 30.8979 22.4104 30.4596 24.3725 30.4596H37.739C46.8825 30.4596 47.2908 23.7863 47.2908 23.7863C47.2908 20.4795 49.243 17.4915 51.8924 17.2126C53.008 17.0931 55.2689 17.1728 56.3645 17.3819C58.6853 17.8202 61.5538 20.7186 63.1773 24.1249C65.5876 24.862 67.5797 23.2983 66.8128 29.0851C66.1653 33.8959 58.7151 34.8222 57.9781 34.8919Z" fill="#1D7DAB"/>
<path d="M54.8307 24.8222C54.8307 28.378 53.496 31.2565 51.8427 31.2565C50.1893 31.2565 48.8546 28.378 48.8546 24.8222C48.8546 24.0752 50.1893 18.3879 51.8427 18.3879C53.496 18.3879 54.8307 23.6469 54.8307 24.8222Z" fill="#1D7DAB"/>
</svg>
