<svg width="76" height="76" viewBox="0 0 76 76" fill="none" xmlns="http://www.w3.org/2000/svg">
<path d="M38.4 0.340088C17.6929 0.340088 0.900024 17.123 0.900024 37.8401C0.900024 58.5572 17.6929 75.3401 38.4 75.3401C59.1072 75.3401 75.9 58.5473 75.9 37.8401C75.9 17.1329 59.1072 0.340088 38.4 0.340088ZM64.2466 47.9297C64.2466 48.3281 63.9279 48.6469 63.5295 48.6469H58.3901C57.9917 48.6469 57.8024 48.9457 57.9618 49.3042C57.9618 49.3042 61.8164 57.9696 61.8164 59.862C61.8164 62.7305 59.2865 65.0512 56.1689 65.0512C53.0514 65.0512 50.5215 62.7305 50.5215 59.862C50.5215 57.9696 54.3761 49.3042 54.3761 49.3042C54.5355 48.9457 54.3462 48.6469 53.9478 48.6469H48.3901C47.9917 48.6469 47.6929 48.3281 47.7227 47.9297C47.7227 47.9297 47.8423 46.2963 47.8423 42.7803C47.8423 39.2644 50.651 38.7365 50.651 38.7365C51.0395 38.6668 51.1192 38.3879 50.8303 38.119L48.2307 35.121C47.8323 35.101 47.1948 35.0911 46.7964 35.0911H12.902C12.5036 35.0911 12.1849 34.7724 12.1849 34.374V25.9277C12.1849 25.5293 12.5036 25.2106 12.902 25.2106H29.4359C29.8343 25.2106 30.1331 25.111 30.1231 24.9915C30.1231 24.9915 30.1231 24.9915 30.1231 24.8819C30.1231 22.2624 34.2068 20.4297 34.2068 20.4297C34.5654 20.2704 35.0235 20.1409 35.2128 20.1409C35.412 20.1409 35.5713 19.8222 35.5713 19.4238V19.1548C35.5713 18.7564 35.2825 18.2983 34.9239 18.1289L33.2506 16.8939C32.9917 16.605 32.4936 16.5353 32.165 16.7445C32.165 16.7445 29.2666 18.5871 26.6271 18.5871C22.7327 18.5871 19.5654 16.625 19.5654 14.2046C19.5654 11.7843 22.7227 9.82216 26.6271 9.82216C29.2566 9.82216 32.165 11.6648 32.165 11.6648C32.4936 11.874 33.0016 11.8242 33.2805 11.5453C33.2805 11.5453 35.0136 9.82216 36.6968 9.82216C38.3801 9.82216 40.1132 11.5453 40.1132 11.5453C40.3921 11.8242 40.9 11.874 41.2287 11.6648C41.2287 11.6648 44.1271 9.82216 46.7666 9.82216C50.661 9.82216 53.8283 11.7843 53.8283 14.2046C53.8283 16.625 50.6709 18.5871 46.7666 18.5871C44.1371 18.5871 41.2287 16.7445 41.2287 16.7445C40.9 16.5353 40.412 16.605 40.1431 16.8939L38.4697 18.1289C38.1112 18.2983 37.8223 18.7664 37.8223 19.1548V19.4238C37.8223 19.8222 37.9817 20.1409 38.1809 20.1409C38.3801 20.1409 38.8283 20.2704 39.1869 20.4297C39.1869 20.4297 43.2705 22.2624 43.2705 24.8819C43.2705 24.9915 43.2705 24.9915 43.2705 24.9915C43.2506 25.111 43.3104 25.2106 43.4 25.2106C43.4 25.2106 43.4 25.2106 43.4797 25.2106C62.902 25.2106 61.3084 37.8899 61.3084 37.8899C61.2586 38.2783 61.5375 38.5971 61.9359 38.5971H63.5096C63.908 38.5971 64.2267 38.9158 64.2267 39.3142V47.9297H64.2466Z" fill="#1D7DAB"/>
</svg>
