<svg width="75" height="76" viewBox="0 0 75 76" fill="none" xmlns="http://www.w3.org/2000/svg">
<path d="M37.5 0.340088C16.7928 0.340088 0 17.123 0 37.8401C0 58.5473 16.7829 75.3401 37.5 75.3401C58.2171 75.3401 75 58.5473 75 37.8401C75 17.1329 58.2072 0.340088 37.5 0.340088ZM63.8645 38.368C63.1872 35.0214 60.6076 26.0572 60.6076 26.0572C60.498 25.6787 60.4183 25.6887 60.4382 26.0871L60.3785 33.6867C60.3984 34.0851 60.4482 34.7226 60.488 35.121L62.9482 60.0911C62.988 60.4795 62.6992 60.8082 62.3008 60.8082H60.5677C60.1693 60.8082 59.8008 60.4895 59.7311 60.101L56.504 41.3759C56.4343 40.9875 56.3147 40.3501 56.2251 39.9716C56.2251 39.9716 56.1056 39.4636 55.7669 39.4636C55.4283 39.4636 55.3088 39.9716 55.3088 39.9716C55.2191 40.36 55.0996 40.9875 55.0299 41.3759L51.8028 60.101C51.7331 60.4895 51.3546 60.8082 50.9661 60.8082H49.2331C48.8347 60.8082 48.5458 60.4895 48.5857 60.0911L51.0458 35.121C51.0857 34.7325 51.1355 34.0851 51.1554 33.6867L51.0956 26.0871C51.1155 25.6887 51.0359 25.6787 50.9263 26.0572C50.9263 26.0572 48.3367 35.0214 47.6594 38.368C47.5797 38.7564 47.3008 38.7465 47.3008 38.7465C46.9024 38.7365 46.2649 38.7365 45.8665 38.7465C45.8665 38.7465 45.5876 38.7564 45.508 38.368C44.8307 35.0214 42.251 26.0572 42.251 26.0572C42.1414 25.6787 42.0617 25.6887 42.0817 26.0871L42.0219 33.6867C42.0418 34.0851 42.0916 34.7226 42.1315 35.121L44.5916 60.0911C44.6315 60.4795 44.3426 60.8082 43.9442 60.8082H42.2112C41.8127 60.8082 41.4343 60.4895 41.3745 60.101L38.1474 41.3759C38.0777 40.9875 37.9582 40.3501 37.8685 39.9716C37.8685 39.9716 37.749 39.4636 37.4104 39.4636C37.0717 39.4636 36.9522 39.9716 36.9522 39.9716C36.8626 40.36 36.743 40.9875 36.6733 41.3759L33.4462 60.101C33.3765 60.4895 32.998 60.8082 32.6096 60.8082H30.8765C30.4781 60.8082 30.1892 60.4895 30.2291 60.0911L32.6892 35.121C32.7291 34.7325 32.7789 34.0851 32.7988 33.6867L32.739 26.0871C32.759 25.6887 32.6793 25.6787 32.5697 26.0572L29.6514 36.9835C29.5418 37.362 29.4721 37.7504 29.4821 37.85C29.4821 37.85 29.4821 37.8501 29.492 37.9397C29.5119 38.119 29.512 38.119 29.512 38.119C29.3825 38.2783 29.1833 38.4875 29.0538 38.5971C28.9343 38.6967 28.2868 38.7365 28.0777 38.7166C27.8785 38.7066 27.51 38.2783 27.3805 38.119C27.3805 38.119 27.3805 38.119 27.4004 37.9397C27.4104 37.8501 27.4104 37.85 27.4104 37.85C27.4203 37.7504 27.3506 37.362 27.241 36.9835L24.3227 26.0572C24.2131 25.6787 24.1335 25.6887 24.1534 26.0871L24.0936 33.6867C24.1135 34.0851 24.1633 34.7226 24.2032 35.121L26.6633 60.0911C26.7032 60.4795 26.4143 60.8082 26.0159 60.8082H24.2829C23.8845 60.8082 23.506 60.4895 23.4462 60.101L20.2191 41.3759C20.1494 40.9875 20.0299 40.3501 19.9402 39.9716C19.9402 39.9716 19.8207 39.4636 19.492 39.4636C19.1534 39.4636 19.0339 39.9716 19.0339 39.9716C18.9442 40.36 18.8247 40.9875 18.755 41.3759L15.5279 60.101C15.4582 60.4895 15.0797 60.8082 14.6912 60.8082H12.9582C12.5598 60.8082 12.2709 60.4895 12.3108 60.0911L14.7709 35.121C14.8108 34.7325 14.8606 34.0851 14.8805 33.6867L14.8207 26.0871C14.8406 25.6887 14.761 25.6787 14.6514 26.0572C14.6514 26.0572 12.0618 35.0214 11.3944 38.368C11.245 39.125 9.40239 38.7166 9.49203 37.9496C11.4243 22.601 12.251 21.7445 12.261 21.7046C12.8386 19.7823 17.4602 18.7963 17.4602 18.7963C17.8486 18.7166 17.9582 18.3979 17.7092 18.0891C17.7092 18.0891 16.494 16.615 16.494 15.0313C16.494 12.7903 17.8386 10.9775 19.502 10.9775C21.1653 10.9775 22.51 12.7903 22.51 15.0313C22.51 16.615 21.2948 18.0891 21.2948 18.0891C21.0458 18.3979 21.1554 18.7066 21.5438 18.7963C21.5438 18.7963 26.1653 19.7823 26.743 21.7046C26.753 21.7345 28.3267 29.5831 28.3267 29.5831C28.4064 29.9716 28.5359 29.9716 28.6056 29.5831C28.6056 29.5831 30.1793 21.7345 30.1892 21.7046C30.7669 19.7823 35.3884 18.7963 35.3884 18.7963C35.7769 18.7166 35.8865 18.3979 35.6375 18.0891C35.6375 18.0891 34.4223 16.615 34.4223 15.0313C34.4223 12.7903 35.7669 10.9775 37.4303 10.9775C39.0936 10.9775 40.4382 12.7903 40.4382 15.0313C40.4382 16.615 39.2231 18.0891 39.2231 18.0891C38.9741 18.3979 39.0837 18.7066 39.4721 18.7963C39.4721 18.7963 44.0936 19.7823 44.6713 21.7046C44.6813 21.7345 46.4741 31.0572 46.4741 31.0572C46.5438 31.4457 46.6733 31.4457 46.743 31.0572C46.743 31.0572 48.5359 21.7345 48.5458 21.7046C49.1235 19.7823 53.745 18.7963 53.745 18.7963C54.1335 18.7166 54.243 18.3979 53.994 18.0891C53.994 18.0891 52.7789 16.615 52.7789 15.0313C52.7789 12.7903 54.1235 10.9775 55.7868 10.9775C57.4502 10.9775 58.7948 12.7903 58.7948 15.0313C58.7948 16.615 57.5797 18.0891 57.5797 18.0891C57.3307 18.3979 57.4402 18.7066 57.8287 18.7963C57.8287 18.7963 62.4502 19.7823 63.0279 21.7046C63.0378 21.7445 63.8645 22.601 65.7968 37.9496C65.8566 38.7166 64.0139 39.125 63.8645 38.368Z" fill="#1D7DAB"/>
</svg>
