<svg width="326" height="326" viewBox="0 0 326 326" fill="none" xmlns="http://www.w3.org/2000/svg">
<path d="M162.717 53.3828C102.357 53.3828 53.4082 102.303 53.4082 162.691C53.4082 223.051 102.328 272 162.717 272C223.105 272 272.025 223.051 272.025 162.691C272.025 102.332 223.076 53.3828 162.717 53.3828ZM164.459 234.17C163.472 234.751 161.846 234.751 160.83 234.17C160.83 234.17 87.5508 191.608 87.5508 136.794C87.5508 116.065 104.361 99.2547 125.09 99.2547C141.029 99.2547 162.63 108.835 162.63 129.565C162.63 108.835 183.446 99.2547 200.169 99.2547C220.898 99.2547 237.708 116.065 237.708 136.794C237.766 191.608 164.459 234.17 164.459 234.17Z" fill="#1D7DAB"/>
</svg>
